<?xml version="1.0" encoding="UTF-8" standalone="no"?>
<svg
   width="340"
   height="85"
   viewBox="0 0 89.958328 22.489582"
   version="1.1"
   id="svg2323"
   inkscape:version="1.3.2 (1:1.3.2+202311252150+091e20ef0f)"
   sodipodi:docname="logo.svg"
   inkscape:export-filename="/home/skylar/Documents/Assets/HelenaExpress/logos/postalpoint/logo-horizontal-white.png"
   inkscape:export-xdpi="149.68576"
   inkscape:export-ydpi="149.68576"
   xmlns:inkscape="http://www.inkscape.org/namespaces/inkscape"
   xmlns:sodipodi="http://sodipodi.sourceforge.net/DTD/sodipodi-0.dtd"
   xmlns="http://www.w3.org/2000/svg"
   xmlns:svg="http://www.w3.org/2000/svg"
   xmlns:rdf="http://www.w3.org/1999/02/22-rdf-syntax-ns#"
   xmlns:cc="http://creativecommons.org/ns#"
   xmlns:dc="http://purl.org/dc/elements/1.1/">
  <defs
     id="defs2317">
    <inkscape:path-effect
       effect="powerclip"
       id="path-effect911"
       is_visible="true"
       lpeversion="1"
       inverse="true"
       flatten="false"
       hide_clip="false"
       message="Use fill-rule evenodd on &lt;b&gt;fill and stroke&lt;/b&gt; dialog if no flatten result after convert clip to paths." />
    <clipPath
       clipPathUnits="userSpaceOnUse"
       id="clipPath907">
      <path
         id="lpe_path-effect911"
         style="opacity:1;fill:#2196f3;fill-opacity:1;fill-rule:nonzero;stroke:none;stroke-width:1.09269;stroke-miterlimit:4;stroke-dasharray:none;stroke-dashoffset:0;stroke-opacity:1;paint-order:normal"
         class="powerclip"
         d="m 69.733433,112.11158 h 74.260217 v 18.918 H 69.733433 Z m 3.3652,9.63519 v 0.70159 h 66.790647 v -0.70159 z" />
    </clipPath>
  </defs>
  <sodipodi:namedview
     id="base"
     pagecolor="#20c5e7"
     bordercolor="#666666"
     borderopacity="1.0"
     inkscape:pageopacity="0"
     inkscape:pageshadow="2"
     inkscape:zoom="1.3262446"
     inkscape:cx="75.77788"
     inkscape:cy="-41.847486"
     inkscape:document-units="mm"
     inkscape:current-layer="g83"
     showgrid="false"
     fit-margin-top="5"
     fit-margin-left="5"
     fit-margin-right="5"
     fit-margin-bottom="5"
     inkscape:window-width="1920"
     inkscape:window-height="1013"
     inkscape:window-x="0"
     inkscape:window-y="0"
     inkscape:window-maximized="1"
     inkscape:document-rotation="0"
     inkscape:pagecheckerboard="0"
     units="px"
     inkscape:showpageshadow="2"
     inkscape:deskcolor="#d1d1d1" />
  <metadata
     id="metadata2320">
    <rdf:RDF>
      <cc:Work
         rdf:about="">
        <dc:format>image/svg+xml</dc:format>
        <dc:type
           rdf:resource="http://purl.org/dc/dcmitype/StillImage" />
      </cc:Work>
    </rdf:RDF>
  </metadata>
  <g
     inkscape:label="Layer 1"
     inkscape:groupmode="layer"
     id="layer1"
     transform="translate(-47.914681,-105.00066)">
    <g
       id="g83"
       transform="translate(-60.250907,14.400928)">
      <g
         id="g75"
         transform="translate(54.45293,-20.96326)"
         style="fill:#ffffff;fill-opacity:1;stroke:none">
        <g
           id="text75"
           style="font-style:italic;font-weight:bold;font-size:11.2886px;line-height:50%;font-family:Ubuntu;-inkscape-font-specification:'Ubuntu Bold Italic';letter-spacing:0.264577px;word-spacing:0px;stroke-width:0.264577px;fill:#ffffff;fill-opacity:1;stroke:none"
           aria-label="PostalPoint">
          <path
             d="m 78.763463,117.95823 q 0.711181,0 1.275611,0.15804 0.575719,0.14675 0.97082,0.44025 0.395101,0.28222 0.609584,0.6999 0.214484,0.41767 0.214484,0.93695 0,0.84665 -0.32737,1.43365 -0.327369,0.58701 -0.903088,0.94825 -0.575718,0.36123 -1.354632,0.51927 -0.778913,0.15804 -1.69329,0.15804 h -0.440255 l -0.632162,2.61896 h -1.749733 l 1.840042,-7.71012 q 0.609585,-0.11288 1.151437,-0.15804 0.553142,-0.0452 1.038552,-0.0452 z m -0.146752,1.4788 q -0.191906,0 -0.32737,0.0113 -0.135463,0.0113 -0.270926,0.0226 l -0.541853,2.30287 h 0.440256 q 0.474121,0 0.857933,-0.0677 0.395101,-0.079 0.666028,-0.24835 0.282215,-0.16933 0.428966,-0.42896 0.158041,-0.27093 0.158041,-0.65474 0,-0.50799 -0.372524,-0.72247 -0.361235,-0.21449 -1.038551,-0.21449 z m 6.112068,6.59255 q -0.598295,0 -1.038551,-0.18062 -0.440255,-0.18062 -0.733759,-0.50799 -0.282215,-0.32737 -0.428967,-0.76762 -0.146751,-0.45155 -0.146751,-0.9934 0,-0.67732 0.214483,-1.35463 0.225772,-0.67732 0.654739,-1.21917 0.428967,-0.54185 1.04984,-0.88051 0.620873,-0.34995 1.422363,-0.34995 0.587007,0 1.027263,0.18062 0.451544,0.18062 0.733759,0.50799 0.293503,0.32737 0.440255,0.77891 0.146752,0.44026 0.146752,0.98211 0,0.67731 -0.214483,1.35463 -0.214484,0.67732 -0.632162,1.21917 -0.417678,0.54185 -1.04984,0.8918 -0.620873,0.33866 -1.444941,0.33866 z m 0.835357,-4.83152 q -0.372524,0 -0.654739,0.21448 -0.282215,0.21448 -0.474121,0.54185 -0.191906,0.32737 -0.293504,0.72247 -0.09031,0.38381 -0.09031,0.73376 0,0.57572 0.180618,0.8918 0.180618,0.30479 0.654739,0.30479 0.372524,0 0.654739,-0.21448 0.282215,-0.21448 0.474121,-0.54185 0.191906,-0.32737 0.282215,-0.71118 0.101597,-0.39511 0.101597,-0.74505 0,-0.57572 -0.180617,-0.88051 -0.180618,-0.31608 -0.654739,-0.31608 z m 5.152534,3.47688 q 0.575719,0 0.790202,-0.15804 0.214484,-0.16932 0.214484,-0.36123 0,-0.12418 -0.04515,-0.21448 -0.03387,-0.0903 -0.124174,-0.16933 -0.09031,-0.079 -0.24835,-0.15804 -0.15804,-0.0903 -0.406389,-0.2032 -0.282215,-0.12417 -0.530564,-0.25964 -0.24835,-0.14675 -0.440256,-0.33865 -0.180617,-0.2032 -0.293503,-0.45155 -0.101598,-0.25964 -0.101598,-0.60958 0,-0.91438 0.666028,-1.44494 0.677316,-0.53057 1.964216,-0.53057 0.609584,0 1.083706,0.13547 0.474121,0.13546 0.767624,0.2935 l -0.575718,1.25303 q -0.237061,-0.12417 -0.609585,-0.23706 -0.372523,-0.11288 -0.733759,-0.11288 -0.15804,0 -0.31608,0.0226 -0.146752,0.0113 -0.282215,0.0677 -0.124175,0.0564 -0.203195,0.15804 -0.07902,0.10159 -0.07902,0.27092 0,0.22577 0.169329,0.33866 0.180617,0.11289 0.496698,0.27093 0.440255,0.21448 0.733759,0.3951 0.293504,0.18062 0.462833,0.38381 0.180617,0.2032 0.259637,0.46283 0.07902,0.25964 0.07902,0.60959 0,0.36123 -0.158041,0.71118 -0.146752,0.34995 -0.474121,0.62087 -0.327369,0.27093 -0.835356,0.44026 -0.507987,0.16933 -1.219169,0.16933 -0.440256,0 -0.801491,-0.0564 -0.349946,-0.0564 -0.620873,-0.13546 -0.270926,-0.0903 -0.462832,-0.18062 -0.180618,-0.0903 -0.282215,-0.14675 l 0.575718,-1.2869 q 0.191906,0.11289 0.598296,0.28222 0.40639,0.16932 0.982108,0.16932 z m 5.400887,-6.22001 1.749733,-0.27093 -0.428967,1.74973 h 1.873908 l -0.338658,1.37721 h -1.862619 l -0.496699,2.0771 q -0.06773,0.25964 -0.09031,0.48541 -0.01129,0.22578 0.05644,0.39511 0.07902,0.15804 0.259637,0.24834 0.180618,0.0903 0.496699,0.0903 0.270926,0 0.519275,-0.0451 0.259638,-0.0564 0.519276,-0.14675 l 0.124175,1.2869 q -0.338658,0.12417 -0.733759,0.21448 -0.395101,0.0903 -0.936954,0.0903 -0.778914,0 -1.20788,-0.22577 -0.428967,-0.23706 -0.609585,-0.63216 -0.180617,-0.40639 -0.15804,-0.92567 0.02258,-0.51927 0.15804,-1.09499 z m 8.685853,4.85409 q -0.15804,0.64345 -0.0903,1.29819 0.0677,0.64345 0.25964,1.15144 l -1.50139,0.21448 q -0.0677,-0.13546 -0.12417,-0.25963 -0.0564,-0.12418 -0.11289,-0.28222 -0.31608,0.25964 -0.69989,0.42897 -0.38381,0.16933 -0.85793,0.16933 -0.56443,0 -0.97082,-0.19191 -0.39511,-0.20319 -0.65474,-0.53056 -0.248352,-0.33866 -0.361238,-0.77892 -0.112886,-0.45154 -0.112886,-0.95953 0,-0.77891 0.270926,-1.46752 0.282218,-0.6886 0.767628,-1.19659 0.4967,-0.51927 1.16272,-0.81278 0.66603,-0.2935 1.44494,-0.2935 0.1016,0 0.34995,0.0113 0.25964,0.0113 0.58701,0.0564 0.32737,0.0339 0.6886,0.12418 0.36124,0.0903 0.68861,0.24834 z m -1.17402,-2.0771 q -0.14675,-0.0226 -0.27092,-0.0339 -0.11289,-0.0113 -0.28222,-0.0113 -0.38381,0 -0.72247,0.1919 -0.32737,0.19191 -0.57572,0.50799 -0.24835,0.30479 -0.3951,0.71118 -0.13546,0.40639 -0.13546,0.84665 0,0.54185 0.18062,0.85793 0.18061,0.31608 0.66602,0.31608 0.25964,0 0.46284,-0.1016 0.21448,-0.10159 0.45154,-0.33865 0.0226,-0.28222 0.0677,-0.58701 0.0564,-0.31608 0.11289,-0.57572 z m 4.97192,4.7525 q -0.80149,0 -1.26432,-0.20319 -0.45155,-0.21449 -0.65474,-0.57572 -0.19191,-0.36124 -0.19191,-0.82407 0.0113,-0.47412 0.13546,-1.00468 l 1.43366,-5.99425 1.74973,-0.27093 -1.56912,6.50224 q -0.0452,0.20319 -0.0564,0.37252 0,0.16933 0.0677,0.30479 0.0677,0.12418 0.22578,0.2032 0.16932,0.079 0.46283,0.10159 z"
             id="path147"
             style="fill:#ffffff;fill-opacity:1;stroke:none" />
          <path
             d="m 114.04734,117.95823 q 0.71118,0 1.27561,0.15804 0.57572,0.14675 0.97082,0.44025 0.3951,0.28222 0.60958,0.6999 0.21449,0.41767 0.21449,0.93695 0,0.84665 -0.32737,1.43365 -0.32737,0.58701 -0.90309,0.94825 -0.57572,0.36123 -1.35463,0.51927 -0.77892,0.15804 -1.69329,0.15804 h -0.44026 l -0.63216,2.61896 h -1.74973 l 1.84004,-7.71012 q 0.60958,-0.11288 1.15144,-0.15804 0.55314,-0.0452 1.03855,-0.0452 z m -0.14675,1.4788 q -0.19191,0 -0.32737,0.0113 -0.13547,0.0113 -0.27093,0.0226 l -0.54185,2.30287 h 0.44025 q 0.47412,0 0.85794,-0.0677 0.3951,-0.079 0.66602,-0.24835 0.28222,-0.16933 0.42897,-0.42896 0.15804,-0.27093 0.15804,-0.65474 0,-0.50799 -0.37252,-0.72247 -0.36124,-0.21449 -1.03855,-0.21449 z m 6.11207,6.59255 q -0.5983,0 -1.03856,-0.18062 -0.44025,-0.18062 -0.73375,-0.50799 -0.28222,-0.32737 -0.42897,-0.76762 -0.14675,-0.45155 -0.14675,-0.9934 0,-0.67732 0.21448,-1.35463 0.22577,-0.67732 0.65474,-1.21917 0.42897,-0.54185 1.04984,-0.88051 0.62087,-0.34995 1.42236,-0.34995 0.58701,0 1.02726,0.18062 0.45155,0.18062 0.73376,0.50799 0.29351,0.32737 0.44026,0.77891 0.14675,0.44026 0.14675,0.98211 0,0.67731 -0.21448,1.35463 -0.21449,0.67732 -0.63216,1.21917 -0.41768,0.54185 -1.04984,0.8918 -0.62088,0.33866 -1.44494,0.33866 z m 0.83535,-4.83152 q -0.37252,0 -0.65474,0.21448 -0.28221,0.21448 -0.47412,0.54185 -0.1919,0.32737 -0.2935,0.72247 -0.0903,0.38381 -0.0903,0.73376 0,0.57572 0.18062,0.8918 0.18061,0.30479 0.65474,0.30479 0.37252,0 0.65473,-0.21448 0.28222,-0.21448 0.47413,-0.54185 0.1919,-0.32737 0.28221,-0.71118 0.1016,-0.39511 0.1016,-0.74505 0,-0.57572 -0.18062,-0.88051 -0.18062,-0.31608 -0.65474,-0.31608 z m 4.8929,4.67348 h -1.67072 l 1.41108,-5.93781 h 1.682 z m 0.81278,-6.66028 q -0.34995,0 -0.63217,-0.20319 -0.28221,-0.21449 -0.28221,-0.64345 0,-0.23706 0.0903,-0.44026 0.10159,-0.21448 0.25964,-0.36123 0.15804,-0.15804 0.36123,-0.24835 0.21448,-0.0903 0.45154,-0.0903 0.34995,0 0.63217,0.21448 0.28221,0.2032 0.28221,0.63216 0,0.23706 -0.1016,0.45155 -0.0903,0.20319 -0.24835,0.36123 -0.15804,0.14675 -0.37252,0.23706 -0.20319,0.0903 -0.44025,0.0903 z m 2.34166,0.9934 q 0.19191,-0.0564 0.41768,-0.12418 0.23706,-0.079 0.51928,-0.13546 0.2935,-0.0677 0.64345,-0.1016 0.36123,-0.0451 0.81278,-0.0451 1.33205,0 1.82875,0.76762 0.4967,0.76763 0.16933,2.09968 l -0.76763,3.20597 h -1.682 l 0.74505,-3.13823 q 0.0677,-0.29351 0.1016,-0.56443 0.0452,-0.28222 0,-0.48541 -0.0452,-0.21449 -0.21449,-0.33866 -0.15804,-0.13547 -0.49669,-0.13547 -0.32737,0 -0.66603,0.0677 l -1.095,4.59446 h -1.682 z m 6.91356,-1.74973 1.74973,-0.27093 -0.42896,1.74973 h 1.8739 l -0.33865,1.37721 h -1.86262 l -0.4967,2.0771 q -0.0677,0.25964 -0.0903,0.48541 -0.0113,0.22578 0.0564,0.39511 0.079,0.15804 0.25964,0.24834 0.18062,0.0903 0.4967,0.0903 0.27093,0 0.51927,-0.0451 0.25964,-0.0564 0.51928,-0.14675 l 0.12417,1.2869 q -0.33865,0.12417 -0.73375,0.21448 -0.39511,0.0903 -0.93696,0.0903 -0.77891,0 -1.20788,-0.22577 -0.42897,-0.23706 -0.60958,-0.63216 -0.18062,-0.40639 -0.15804,-0.92567 0.0226,-0.51927 0.15804,-1.09499 z"
             id="path148"
             style="fill:#ffffff;fill-opacity:1;stroke:none" />
        </g>
      </g>
      <path
         style="font-weight:300;font-size:2.46944px;line-height:1;font-family:Ubuntu;-inkscape-font-specification:'Ubuntu Light';font-variant-caps:small-caps;text-align:end;letter-spacing:0.0073068px;baseline-shift:baseline;text-anchor:end;stroke-width:5.29168;stroke-linecap:round;stroke-linejoin:bevel;fill:#ffffff;fill-opacity:1;stroke:none"
         d="m 195.13386,104.66132 q -0.0642,-0.11606 -0.13335,-0.21978 -0.0691,-0.10619 -0.121,-0.16792 -0.0173,0.002 -0.0321,0.002 -0.0148,0 -0.0272,0 h -0.15558 v 0.38523 h -0.13582 v -0.95567 q 0.0568,-0.0124 0.12594,-0.0198 0.0716,-0.007 0.13335,-0.007 0.2099,0 0.31856,0.0766 0.11113,0.0766 0.11113,0.23212 0,0.0889 -0.0494,0.16052 -0.0494,0.0691 -0.1457,0.10371 0.0197,0.0222 0.0519,0.0691 0.0346,0.0445 0.0716,0.10124 0.037,0.0568 0.0741,0.12101 0.037,0.0642 0.0642,0.11853 z m -0.46919,-0.49636 h 0.12347 q 0.0617,0 0.1136,-0.007 0.0519,-0.007 0.0889,-0.0272 0.0395,-0.0222 0.0593,-0.0568 0.0222,-0.0346 0.0222,-0.0889 0,-0.0519 -0.0247,-0.0864 -0.0222,-0.037 -0.0617,-0.0593 -0.037,-0.0222 -0.0864,-0.0321 -0.0494,-0.01 -0.10372,-0.01 -0.037,0 -0.0716,0.002 -0.0321,0 -0.0593,0.002 z m 1.03963,0.007 q 0,0.21237 -0.0691,0.37783 -0.0691,0.16545 -0.18521,0.28151 -0.11359,0.1136 -0.2667,0.17533 -0.15063,0.0593 -0.31609,0.0593 -0.16545,0 -0.31855,-0.0593 -0.15064,-0.0617 -0.2667,-0.17533 -0.1136,-0.11606 -0.18274,-0.28151 -0.0691,-0.16546 -0.0691,-0.37783 0,-0.2099 0.0691,-0.37535 0.0691,-0.16793 0.18274,-0.28152 0.11606,-0.11359 0.2667,-0.17286 0.1531,-0.0617 0.31855,-0.0617 0.16546,0 0.31609,0.0617 0.15311,0.0593 0.2667,0.17286 0.11607,0.11359 0.18521,0.28152 0.0691,0.16545 0.0691,0.37535 z m -0.14569,0 q 0,-0.17039 -0.0519,-0.31115 -0.0519,-0.14076 -0.14323,-0.23953 -0.0914,-0.10125 -0.21978,-0.15558 -0.12594,-0.0543 -0.27658,-0.0543 -0.15063,0 -0.27904,0.0543 -0.12594,0.0543 -0.21731,0.15558 -0.0914,0.0988 -0.14323,0.23953 -0.0519,0.14076 -0.0519,0.31115 0,0.17039 0.0519,0.31115 0.0519,0.14076 0.14323,0.24201 0.0914,0.0988 0.21731,0.15557 0.12841,0.0543 0.27904,0.0543 0.15064,0 0.27658,-0.0543 0.12841,-0.0568 0.21978,-0.15557 0.0914,-0.10125 0.14323,-0.24201 0.0519,-0.14076 0.0519,-0.31115 z"
         id="text82"
         aria-label="®" />
      <path
         style="font-style:italic;font-weight:500;font-size:3.52778px;line-height:50%;font-family:Ubuntu;-inkscape-font-specification:'Ubuntu Medium Italic';text-align:end;letter-spacing:0.264583px;word-spacing:0px;text-anchor:end;stroke-width:0.264583px;fill:#ffffff;fill-opacity:1;stroke:none"
         d="m 147.5108,108.10342 q 0.43744,0 0.66322,0.18345 0.22931,0.17991 0.22931,0.47977 0,0.13406 -0.0388,0.25753 -0.0353,0.11995 -0.11642,0.22578 -0.0776,0.10231 -0.20461,0.18345 -0.12347,0.0811 -0.29986,0.13405 0.0459,0.0811 0.0988,0.19756 0.0529,0.11289 0.10936,0.24694 0.0564,0.13053 0.10936,0.27517 0.0529,0.14464 0.0953,0.28575 h -0.46919 q -0.0423,-0.127 -0.0882,-0.25753 -0.0459,-0.13053 -0.0952,-0.25047 -0.0494,-0.12347 -0.1023,-0.22931 -0.0494,-0.10936 -0.0988,-0.19403 -0.0318,0.004 -0.0776,0.004 -0.0459,0 -0.0811,0 h -0.20461 l -0.22225,0.92781 h -0.4445 l 0.57503,-2.40948 q 0.16933,-0.0353 0.34219,-0.0459 0.17639,-0.0141 0.32103,-0.0141 z m 0.44097,0.71261 q 0,-0.19402 -0.14111,-0.26458 -0.14111,-0.0741 -0.37747,-0.0741 -0.0494,0 -0.10584,0.004 -0.0564,0.004 -0.11288,0.0106 l -0.19051,0.79728 h 0.19756 q 0.15875,0 0.29281,-0.0247 0.13405,-0.0282 0.2293,-0.0847 0.0988,-0.0564 0.1517,-0.14464 0.0564,-0.0917 0.0564,-0.21873 z m 0.81491,1.09009 q 0,-0.23636 0.0741,-0.45509 0.0776,-0.22225 0.21872,-0.39158 0.14464,-0.17286 0.34573,-0.27517 0.20108,-0.1023 0.45155,-0.1023 0.26811,0 0.41628,0.13758 0.14817,0.13759 0.14817,0.35278 0,0.22225 -0.10937,0.35983 -0.10936,0.13759 -0.28575,0.2152 -0.17286,0.0776 -0.39511,0.10583 -0.21872,0.0282 -0.4445,0.0353 -0.004,0.007 -0.004,0.0141 v 0.0353 q 0,0.32103 0.40569,0.32103 0.23989,0 0.47978,-0.0988 l 0.0353,0.34572 q -0.0847,0.0388 -0.23989,0.0776 -0.15523,0.0388 -0.35278,0.0388 -0.19756,0 -0.33867,-0.0564 -0.14111,-0.0564 -0.23283,-0.15522 -0.0882,-0.0988 -0.13053,-0.22578 -0.0423,-0.13053 -0.0423,-0.27869 z m 1.02658,-0.87489 q -0.10583,0 -0.20108,0.0423 -0.0953,0.0423 -0.16934,0.11642 -0.0741,0.0741 -0.13052,0.17639 -0.0529,0.0988 -0.0776,0.21519 0.42333,-0.0141 0.61383,-0.1023 0.19403,-0.0882 0.19403,-0.26459 0,-0.0705 -0.0529,-0.127 -0.0494,-0.0564 -0.17639,-0.0564 z m 1.50989,-0.79022 0.4445,-0.0706 -0.13406,0.55739 h 0.60325 l -0.0847,0.35278 h -0.60326 l -0.17638,0.73025 q -0.0176,0.0776 -0.0247,0.13053 -0.007,0.0494 -0.007,0.0917 0,0.0423 0.007,0.0847 0.0106,0.0388 0.0353,0.0706 0.0282,0.0282 0.0776,0.0494 0.0529,0.0176 0.14111,0.0176 0.0952,0 0.18345,-0.0247 0.0882,-0.0247 0.15522,-0.0529 l 0.0317,0.34219 q -0.0811,0.0353 -0.20461,0.067 -0.12348,0.0318 -0.28928,0.0318 -0.30339,0 -0.43392,-0.13053 -0.13053,-0.13405 -0.13053,-0.36336 0,-0.0847 0.0106,-0.17286 0.0141,-0.0917 0.0388,-0.19403 z m 2.77988,1.61572 q -0.0106,0.0388 -0.0212,0.127 -0.0106,0.0882 -0.0106,0.1658 0,0.10231 0.0176,0.20109 0.0176,0.0952 0.0565,0.19403 l -0.381,0.0564 q -0.0423,-0.0847 -0.067,-0.17992 -0.0882,0.0776 -0.21872,0.14112 -0.127,0.06 -0.28928,0.06 -0.16581,0 -0.28575,-0.0529 -0.11642,-0.0564 -0.1905,-0.15169 -0.0741,-0.0988 -0.10936,-0.22931 -0.0353,-0.13053 -0.0353,-0.28222 0,-0.25753 0.0917,-0.47978 0.0917,-0.22225 0.254,-0.38453 0.16581,-0.16228 0.39159,-0.254 0.22577,-0.0952 0.49388,-0.0952 0.13759,0 0.27517,0.0247 0.14111,0.0212 0.28222,0.0847 z m -0.23283,-0.79728 q -0.067,-0.0141 -0.15169,-0.0141 -0.15875,0 -0.29281,0.0706 -0.13406,0.067 -0.23283,0.18344 -0.0952,0.11289 -0.14817,0.26106 -0.0529,0.14816 -0.0529,0.31044 0,0.0811 0.0141,0.15169 0.0141,0.0706 0.0459,0.12348 0.0353,0.0529 0.0917,0.0847 0.0564,0.0318 0.14464,0.0318 0.11289,0 0.19755,-0.0459 0.0882,-0.0494 0.16228,-0.13053 0.004,-0.0917 0.0141,-0.17286 0.0141,-0.0811 0.0353,-0.16227 z m 1.27705,1.51342 h -0.42333 l 0.44097,-1.84503 h 0.42686 z m 0.3175,-2.12373 q -0.0952,0 -0.1658,-0.0564 -0.0706,-0.0564 -0.0706,-0.16933 0,-0.13053 0.0882,-0.2152 0.0917,-0.0847 0.20814,-0.0847 0.0953,0 0.16581,0.06 0.0741,0.0564 0.0741,0.16933 0,0.13053 -0.0917,0.2152 -0.0917,0.0811 -0.20814,0.0811 z m 1.18533,2.15901 q -0.1658,-0.004 -0.28222,-0.0423 -0.11289,-0.0388 -0.18344,-0.10583 -0.067,-0.067 -0.0988,-0.15875 -0.0282,-0.0917 -0.0282,-0.20108 0,-0.11289 0.0247,-0.23637 0.0282,-0.127 0.06,-0.25047 l 0.40923,-1.70744 0.4445,-0.0706 q -0.10936,0.46214 -0.21873,0.92075 -0.10936,0.45509 -0.22225,0.91722 -0.0176,0.0741 -0.0388,0.14817 -0.0212,0.0706 -0.0212,0.14111 0,0.06 0,0.11289 0.004,0.0494 0.0282,0.0882 0.0282,0.0353 0.0811,0.06 0.0529,0.0247 0.13759,0.0318 z m 2.35303,-0.35984 q 0.0952,0 0.18697,-0.0176 0.0952,-0.0176 0.16933,-0.06 0.0776,-0.0423 0.12347,-0.11289 0.0459,-0.0741 0.0459,-0.18344 0,-0.0811 -0.0353,-0.13759 -0.0353,-0.06 -0.0952,-0.10583 -0.06,-0.0459 -0.13759,-0.0847 -0.0741,-0.0423 -0.15875,-0.0882 -0.0917,-0.0459 -0.17639,-0.10231 -0.0811,-0.06 -0.14463,-0.13405 -0.0635,-0.0741 -0.10231,-0.17286 -0.0353,-0.0988 -0.0353,-0.23284 0,-0.16227 0.06,-0.29633 0.0635,-0.13758 0.18345,-0.23636 0.12347,-0.0988 0.29986,-0.15522 0.17992,-0.0564 0.41628,-0.0564 0.10936,0 0.20814,0.0176 0.1023,0.0176 0.1905,0.0459 0.0882,0.0247 0.15522,0.0564 0.067,0.0318 0.10583,0.06 l -0.19402,0.33867 q -0.0741,-0.06 -0.20814,-0.10231 -0.13053,-0.0423 -0.28928,-0.0423 -0.0953,0 -0.18345,0.0212 -0.0847,0.0176 -0.15169,0.06 -0.0635,0.0388 -0.10231,0.10583 -0.0353,0.0635 -0.0353,0.15169 0,0.0811 0.0247,0.13406 0.0282,0.0529 0.0741,0.0952 0.0494,0.0388 0.11289,0.0741 0.0635,0.0318 0.13759,0.0741 0.10936,0.06 0.20461,0.11994 0.0988,0.06 0.17286,0.13758 0.0741,0.0776 0.11641,0.17992 0.0459,0.0988 0.0459,0.23989 0,0.19756 -0.0741,0.34572 -0.0741,0.14817 -0.20814,0.24695 -0.13405,0.0953 -0.3175,0.14464 -0.18344,0.0494 -0.40216,0.0494 -0.14464,0 -0.26811,-0.0212 -0.11995,-0.0212 -0.2152,-0.0529 -0.0952,-0.0318 -0.1658,-0.067 -0.067,-0.0353 -0.10584,-0.0635 l 0.19756,-0.34925 q 0.0353,0.0247 0.0917,0.0564 0.06,0.0318 0.13406,0.06 0.0741,0.0247 0.16227,0.0423 0.0882,0.0176 0.18698,0.0176 z m 1.48166,0.32456 0.63853,-2.667 0.4445,-0.0706 -0.21873,0.90664 q 0.0706,-0.0176 0.1517,-0.0318 0.0847,-0.0176 0.1658,-0.0176 0.15523,0 0.26459,0.0459 0.11289,0.0423 0.18344,0.11995 0.0741,0.0776 0.10584,0.18697 0.0353,0.10936 0.0353,0.23636 0,0.1517 -0.0423,0.32103 l -0.23283,0.97014 h -0.42686 l 0.22225,-0.92428 q 0.0176,-0.0811 0.0353,-0.16581 0.0176,-0.0847 0.0176,-0.15875 0,-0.11641 -0.0635,-0.19402 -0.06,-0.0811 -0.23283,-0.0811 -0.0706,0 -0.14111,0.0141 -0.0706,0.0106 -0.127,0.0282 l -0.35278,1.48167 z m 2.67405,0 h -0.42333 l 0.44097,-1.84503 h 0.42686 z m 0.3175,-2.12373 q -0.0952,0 -0.1658,-0.0564 -0.0706,-0.0564 -0.0706,-0.16933 0,-0.13053 0.0882,-0.2152 0.0917,-0.0847 0.20814,-0.0847 0.0952,0 0.1658,0.06 0.0741,0.0564 0.0741,0.16933 0,0.13053 -0.0917,0.2152 -0.0917,0.0811 -0.20814,0.0811 z m 0.98778,1.79212 q 0.0353,0.007 0.0741,0.0106 0.0388,0 0.0776,0 0.16933,0 0.30339,-0.0635 0.13758,-0.067 0.23283,-0.17639 0.0952,-0.11289 0.14464,-0.26105 0.0529,-0.1517 0.0529,-0.32103 0,-0.0776 -0.0176,-0.14464 -0.0176,-0.0706 -0.06,-0.12347 -0.0388,-0.0529 -0.10936,-0.0847 -0.067,-0.0318 -0.17286,-0.0318 -0.0705,0 -0.13405,0.0106 -0.0635,0.007 -0.11289,0.0212 z m 1.31234,-0.8502 q 0,0.25047 -0.0811,0.47272 -0.0776,0.21873 -0.23284,0.38453 -0.15169,0.16581 -0.37394,0.26459 -0.21872,0.0952 -0.50447,0.0952 -0.0494,0 -0.10231,-0.007 -0.0494,-0.004 -0.0988,-0.0106 l -0.15522,0.635 h -0.42686 l 0.58208,-2.42359 q 0.14464,-0.0529 0.32103,-0.0847 0.17992,-0.0318 0.35983,-0.0318 0.18345,0 0.3175,0.0564 0.13759,0.0529 0.22225,0.14817 0.0882,0.0953 0.13053,0.22578 0.0423,0.127 0.0423,0.27516 z m 0.94191,0.8502 q 0.0353,0.007 0.0741,0.0106 0.0388,0 0.0776,0 0.16934,0 0.30339,-0.0635 0.13759,-0.067 0.23284,-0.17639 0.0952,-0.11289 0.14464,-0.26105 0.0529,-0.1517 0.0529,-0.32103 0,-0.0776 -0.0176,-0.14464 -0.0176,-0.0706 -0.06,-0.12347 -0.0388,-0.0529 -0.10936,-0.0847 -0.067,-0.0318 -0.17286,-0.0318 -0.0706,0 -0.13406,0.0106 -0.0635,0.007 -0.11289,0.0212 z m 1.31233,-0.8502 q 0,0.25047 -0.0811,0.47272 -0.0776,0.21873 -0.23283,0.38453 -0.15169,0.16581 -0.37394,0.26459 -0.21873,0.0952 -0.50448,0.0952 -0.0494,0 -0.1023,-0.007 -0.0494,-0.004 -0.0988,-0.0106 l -0.15522,0.635 h -0.42686 l 0.58208,-2.42359 q 0.14464,-0.0529 0.32103,-0.0847 0.17992,-0.0318 0.35983,-0.0318 0.18345,0 0.3175,0.0564 0.13759,0.0529 0.22225,0.14817 0.0882,0.0953 0.13053,0.22578 0.0423,0.127 0.0423,0.27516 z m 0.85725,1.18181 h -0.42333 l 0.44097,-1.84503 h 0.42686 z m 0.3175,-2.12373 q -0.0952,0 -0.16581,-0.0564 -0.0705,-0.0564 -0.0705,-0.16933 0,-0.13053 0.0882,-0.2152 0.0917,-0.0847 0.20814,-0.0847 0.0953,0 0.16581,0.06 0.0741,0.0564 0.0741,0.16933 0,0.13053 -0.0917,0.2152 -0.0917,0.0811 -0.20814,0.0811 z m 0.90311,0.35631 q 0.14111,-0.0423 0.32103,-0.0776 0.18344,-0.0388 0.39864,-0.0388 0.32455,0 0.47625,0.15875 0.15169,0.15875 0.15169,0.42687 0,0.0741 -0.0141,0.15875 -0.0106,0.0811 -0.0282,0.16933 l -0.23283,0.97014 h -0.42686 l 0.21872,-0.92428 q 0.0176,-0.0776 0.0353,-0.15875 0.0176,-0.0811 0.0212,-0.15522 0.004,-0.12347 -0.06,-0.20461 -0.06,-0.0811 -0.23989,-0.0811 -0.15169,0 -0.26105,0.0318 l -0.35631,1.49225 h -0.42686 z m 2.34597,2.07081 q 0.26106,0 0.39159,-0.11995 0.13405,-0.11994 0.17991,-0.32808 l 0.0106,-0.0494 q -0.0706,0.0353 -0.16934,0.067 -0.0988,0.0282 -0.20814,0.0282 -0.31044,0 -0.46214,-0.16581 -0.14816,-0.16933 -0.14816,-0.44802 0,-0.254 0.0882,-0.4692 0.0882,-0.21519 0.24695,-0.37041 0.16228,-0.15875 0.38805,-0.24695 0.22578,-0.0882 0.50095,-0.0882 0.13405,0 0.28575,0.0318 0.15522,0.0282 0.27869,0.0953 l -0.37394,1.56633 q -0.0494,0.20814 -0.127,0.36689 -0.0741,0.16228 -0.19756,0.26811 -0.12347,0.10936 -0.30691,0.16581 -0.17992,0.0564 -0.43745,0.0564 -0.18697,0 -0.33867,-0.0423 -0.14816,-0.0388 -0.26105,-0.0988 l 0.15169,-0.34572 q 0.0952,0.0564 0.21872,0.0917 0.127,0.0353 0.28928,0.0353 z m 0.31045,-0.74789 q 0.0953,0 0.19403,-0.0353 0.1023,-0.0353 0.16933,-0.0882 l 0.22578,-0.94192 q -0.0811,-0.0176 -0.15875,-0.0176 -0.16228,0 -0.29634,0.06 -0.13052,0.06 -0.22577,0.16228 -0.0953,0.10231 -0.14817,0.23989 -0.0529,0.13405 -0.0529,0.28928 0,0.15522 0.067,0.24341 0.067,0.0882 0.22578,0.0882 z m 3.18557,0.11994 q 0.0952,0 0.18698,-0.0176 0.0952,-0.0176 0.16933,-0.06 0.0776,-0.0423 0.12347,-0.11289 0.0459,-0.0741 0.0459,-0.18344 0,-0.0811 -0.0353,-0.13759 -0.0353,-0.06 -0.0952,-0.10583 -0.06,-0.0459 -0.13759,-0.0847 -0.0741,-0.0423 -0.15875,-0.0882 -0.0917,-0.0459 -0.17639,-0.10231 -0.0811,-0.06 -0.14464,-0.13405 -0.0635,-0.0741 -0.1023,-0.17286 -0.0353,-0.0988 -0.0353,-0.23284 0,-0.16227 0.06,-0.29633 0.0635,-0.13758 0.18345,-0.23636 0.12347,-0.0988 0.29986,-0.15522 0.17992,-0.0564 0.41628,-0.0564 0.10936,0 0.20814,0.0176 0.1023,0.0176 0.1905,0.0459 0.0882,0.0247 0.15522,0.0564 0.067,0.0318 0.10583,0.06 l -0.19403,0.33867 q -0.0741,-0.06 -0.20814,-0.10231 -0.13052,-0.0423 -0.28927,-0.0423 -0.0953,0 -0.18345,0.0212 -0.0847,0.0176 -0.15169,0.06 -0.0635,0.0388 -0.10231,0.10583 -0.0353,0.0635 -0.0353,0.15169 0,0.0811 0.0247,0.13406 0.0282,0.0529 0.0741,0.0952 0.0494,0.0388 0.11289,0.0741 0.0635,0.0318 0.13758,0.0741 0.10937,0.06 0.20462,0.11994 0.0988,0.06 0.17286,0.13758 0.0741,0.0776 0.11641,0.17992 0.0459,0.0988 0.0459,0.23989 0,0.19756 -0.0741,0.34572 -0.0741,0.14817 -0.20814,0.24695 -0.13405,0.0953 -0.3175,0.14464 -0.18344,0.0494 -0.40216,0.0494 -0.14464,0 -0.26812,-0.0212 -0.11994,-0.0212 -0.21519,-0.0529 -0.0952,-0.0318 -0.16581,-0.067 -0.067,-0.0353 -0.10583,-0.0635 l 0.19756,-0.34925 q 0.0353,0.0247 0.0917,0.0564 0.06,0.0318 0.13405,0.06 0.0741,0.0247 0.16228,0.0423 0.0882,0.0176 0.18697,0.0176 z m 2.24014,0.37395 q -0.32808,0 -0.50095,-0.19403 -0.17286,-0.19403 -0.17286,-0.51153 0,-0.20461 0.0635,-0.42333 0.0635,-0.21872 0.19403,-0.39864 0.13053,-0.17992 0.32808,-0.29634 0.19756,-0.11641 0.46567,-0.11641 0.32809,0 0.50095,0.19403 0.17286,0.1905 0.17286,0.508 0,0.20814 -0.0635,0.42686 -0.06,0.21872 -0.1905,0.39864 -0.127,0.17991 -0.32809,0.29633 -0.19755,0.11642 -0.46919,0.11642 z m 0.32455,-1.58045 q -0.13758,0 -0.24694,0.0811 -0.10583,0.0776 -0.17992,0.20108 -0.0706,0.12348 -0.10936,0.27164 -0.0388,0.14464 -0.0388,0.28223 0,0.17638 0.067,0.27869 0.067,0.10231 0.23637,0.10231 0.13758,0 0.24341,-0.0776 0.10936,-0.0811 0.17992,-0.20108 0.0741,-0.12347 0.11289,-0.27164 0.0388,-0.14816 0.0388,-0.28222 0,-0.17639 -0.067,-0.27869 -0.067,-0.10584 -0.23637,-0.10584 z m 2.04611,-0.31397 h 0.61737 l -0.0847,0.35278 h -0.61736 l -0.26459,1.10419 q -0.0459,0.1905 -0.0882,0.33867 -0.0388,0.14817 -0.0917,0.27164 -0.0529,0.12347 -0.127,0.2293 -0.0706,0.10937 -0.17992,0.2152 l -0.37042,-0.0564 q 0.067,-0.0847 0.12348,-0.17286 0.06,-0.0847 0.10583,-0.18344 0.0494,-0.0952 0.0882,-0.21167 0.0423,-0.11289 0.0741,-0.254 l 0.4198,-1.76389 q 0.0423,-0.17992 0.11289,-0.32103 0.0741,-0.14464 0.17992,-0.23989 0.10936,-0.0988 0.25753,-0.14816 0.15169,-0.0529 0.34925,-0.0529 0.14111,0 0.254,0.0317 0.11641,0.0282 0.17639,0.0564 l -0.15523,0.33513 q -0.0459,-0.0212 -0.12347,-0.0388 -0.0741,-0.0212 -0.17639,-0.0212 -0.10583,0 -0.17991,0.0317 -0.0741,0.0282 -0.127,0.0811 -0.0529,0.0529 -0.0882,0.13053 -0.0318,0.0741 -0.0529,0.16228 z m 1.26647,-0.48683 0.4445,-0.0706 -0.13405,0.55739 h 0.60325 l -0.0847,0.35278 h -0.60325 l -0.17639,0.73025 q -0.0176,0.0776 -0.0247,0.13053 -0.007,0.0494 -0.007,0.0917 0,0.0423 0.007,0.0847 0.0106,0.0388 0.0353,0.0706 0.0282,0.0282 0.0776,0.0494 0.0529,0.0176 0.14111,0.0176 0.0952,0 0.18344,-0.0247 0.0882,-0.0247 0.15523,-0.0529 l 0.0317,0.34219 q -0.0811,0.0353 -0.20462,0.067 -0.12347,0.0318 -0.28927,0.0318 -0.30339,0 -0.43392,-0.13053 -0.13053,-0.13405 -0.13053,-0.36336 0,-0.0847 0.0106,-0.17286 0.0141,-0.0917 0.0388,-0.19403 z m 2.63172,1.16416 q -0.067,0.1517 -0.15169,0.31398 -0.0847,0.15875 -0.17639,0.31397 -0.0917,0.15169 -0.18345,0.2928 -0.0917,0.13759 -0.16933,0.24695 h -0.35278 q -0.0317,-0.16228 -0.0635,-0.37042 -0.0282,-0.20814 -0.0529,-0.4445 -0.0247,-0.23636 -0.0459,-0.49742 -0.0176,-0.26105 -0.0247,-0.53269 h 0.42333 q 0,0.14817 0.004,0.32103 0.004,0.16933 0.0106,0.34925 0.0106,0.17639 0.0212,0.34925 0.0141,0.17286 0.0353,0.32455 0.0988,-0.15169 0.19403,-0.32102 0.0988,-0.17287 0.18697,-0.34573 0.0882,-0.17639 0.16228,-0.34925 0.0776,-0.17286 0.13405,-0.32808 h 0.36689 q 0,0.14464 0.004,0.30692 0.004,0.16227 0.0106,0.33514 0.0106,0.17286 0.0212,0.35277 0.0141,0.17639 0.0353,0.34925 0.0917,-0.13405 0.18697,-0.30691 0.0952,-0.17286 0.18345,-0.35278 0.0882,-0.18345 0.15875,-0.35983 0.0741,-0.17992 0.11994,-0.32456 h 0.4445 q -0.0741,0.21167 -0.18344,0.45156 -0.10584,0.23636 -0.23989,0.47977 -0.13406,0.24342 -0.28928,0.47978 -0.1517,0.23283 -0.3175,0.43392 h -0.35278 q -0.0388,-0.29634 -0.067,-0.58209 -0.0247,-0.28927 -0.0318,-0.58561 z m 3.27378,0.45156 q -0.0106,0.0388 -0.0212,0.127 -0.0106,0.0882 -0.0106,0.1658 0,0.10231 0.0176,0.20109 0.0176,0.0952 0.0564,0.19403 l -0.381,0.0564 q -0.0423,-0.0847 -0.067,-0.17992 -0.0882,0.0776 -0.21872,0.14112 -0.127,0.06 -0.28928,0.06 -0.1658,0 -0.28575,-0.0529 -0.11641,-0.0564 -0.1905,-0.15169 -0.0741,-0.0988 -0.10936,-0.22931 -0.0353,-0.13053 -0.0353,-0.28222 0,-0.25753 0.0917,-0.47978 0.0917,-0.22225 0.254,-0.38453 0.1658,-0.16228 0.39158,-0.254 0.22578,-0.0952 0.49389,-0.0952 0.13758,0 0.27517,0.0247 0.14111,0.0212 0.28222,0.0847 z m -0.23283,-0.79728 q -0.067,-0.0141 -0.1517,-0.0141 -0.15875,0 -0.2928,0.0706 -0.13406,0.067 -0.23284,0.18344 -0.0953,0.11289 -0.14816,0.26106 -0.0529,0.14816 -0.0529,0.31044 0,0.0811 0.0141,0.15169 0.0141,0.0706 0.0459,0.12348 0.0353,0.0529 0.0917,0.0847 0.0565,0.0318 0.14464,0.0318 0.11289,0 0.19756,-0.0459 0.0882,-0.0494 0.16228,-0.13053 0.004,-0.0917 0.0141,-0.17286 0.0141,-0.0811 0.0353,-0.16227 z m 2.21896,0.0459 q -0.0705,-0.0247 -0.15169,-0.0388 -0.0811,-0.0141 -0.1905,-0.0141 -0.06,0 -0.127,0.0106 -0.067,0.007 -0.11289,0.0212 l -0.35631,1.48872 h -0.42686 l 0.42334,-1.76036 q 0.14816,-0.0494 0.32102,-0.0847 0.17286,-0.0388 0.37395,-0.0388 0.0423,0 0.0952,0.007 0.0529,0.004 0.1023,0.0106 0.0529,0.007 0.0953,0.0176 0.0459,0.0106 0.0776,0.0247 z m 0.39158,0.80081 q 0,-0.23636 0.0741,-0.45509 0.0776,-0.22225 0.21873,-0.39158 0.14463,-0.17286 0.34572,-0.27517 0.20108,-0.1023 0.45155,-0.1023 0.26812,0 0.41628,0.13758 0.14817,0.13759 0.14817,0.35278 0,0.22225 -0.10936,0.35983 -0.10936,0.13759 -0.28575,0.2152 -0.17286,0.0776 -0.39511,0.10583 -0.21873,0.0282 -0.4445,0.0353 -0.004,0.007 -0.004,0.0141 v 0.0353 q 0,0.32103 0.40569,0.32103 0.23989,0 0.47978,-0.0988 l 0.0353,0.34572 q -0.0847,0.0388 -0.23989,0.0776 -0.15522,0.0388 -0.35278,0.0388 -0.19755,0 -0.33867,-0.0564 -0.14111,-0.0564 -0.23283,-0.15522 -0.0882,-0.0988 -0.13053,-0.22578 -0.0423,-0.13053 -0.0423,-0.27869 z m 1.02658,-0.87489 q -0.10583,0 -0.20108,0.0423 -0.0952,0.0423 -0.16933,0.11642 -0.0741,0.0741 -0.13053,0.17639 -0.0529,0.0988 -0.0776,0.21519 0.42333,-0.0141 0.61383,-0.1023 0.19403,-0.0882 0.19403,-0.26459 0,-0.0705 -0.0529,-0.127 -0.0494,-0.0564 -0.17639,-0.0564 z"
         id="text83"
         aria-label="Retail Shipping Software" />
      <g
         id="g92"
         transform="matrix(0.99093071,0,0,0.99093071,55.051329,-19.853048)"
         style="stroke-width:1.00915">
        <path
           id="path83"
           style="fill:#ffffff;fill-opacity:1;fill-rule:nonzero;stroke:none;stroke-width:0.900543;stroke-linecap:butt;stroke-linejoin:bevel;stroke-miterlimit:4;stroke-dasharray:none;stroke-dashoffset:0;stroke-opacity:1;paint-order:normal"
           d="m 64.011128,112.79081 -8.479935,3.6318 v 10.29582 l 8.479935,3.6318 8.479936,-3.6318 v -10.29582 z" />
        <g
           id="g91"
           transform="matrix(1.0413357,0,0,1.0413357,-60.24842,-98.162131)"
           style="stroke-width:1.82541">
          <path
             style="opacity:1;fill:#40c4ff;fill-opacity:1;fill-rule:nonzero;stroke:none;stroke-width:0.864798;stroke-linecap:butt;stroke-linejoin:bevel;stroke-miterlimit:4;stroke-dasharray:none;stroke-dashoffset:0;stroke-opacity:1;paint-order:normal"
             d="m 111.76098,206.41716 7.5661,3.2408 v 9.18649 l -7.5661,-3.24077 z"
             id="path84"
             inkscape:connector-curvature="0"
             sodipodi:nodetypes="ccccc" />
          <path
             sodipodi:nodetypes="ccccc"
             inkscape:connector-curvature="0"
             id="path85"
             d="m 126.89319,206.41716 -7.56611,3.2408 v 9.18649 l 7.56611,-3.24077 z"
             style="opacity:1;fill:#0091ea;fill-opacity:1;fill-rule:nonzero;stroke:none;stroke-width:0.864798;stroke-linecap:butt;stroke-linejoin:bevel;stroke-miterlimit:4;stroke-dasharray:none;stroke-dashoffset:0;stroke-opacity:1;paint-order:normal" />
          <path
             style="opacity:1;fill:#03a9f4;fill-opacity:1;fill-rule:nonzero;stroke:none;stroke-width:0.864798;stroke-linecap:butt;stroke-linejoin:bevel;stroke-miterlimit:4;stroke-dasharray:none;stroke-dashoffset:0;stroke-opacity:1;paint-order:normal"
             d="m 126.89319,206.41716 -7.56611,3.2408 -7.5661,-3.2408 7.5661,-3.24078 z"
             id="path86"
             inkscape:connector-curvature="0"
             sodipodi:nodetypes="ccccc" />
          <path
             id="path87"
             style="fill:#eeeeee;fill-opacity:1;fill-rule:nonzero;stroke:none;stroke-width:0.4324;stroke-linecap:butt;stroke-linejoin:bevel;stroke-miterlimit:4;stroke-dasharray:none;stroke-dashoffset:0;stroke-opacity:1;paint-order:normal"
             d="m 119.32713,206.41722 -3.78297,1.6203 v 4.59339 l 3.78297,1.62029 3.78297,-1.62029 v -4.59339 z" />
          <g
             transform="rotate(180,124.6849,209.48169)"
             id="g90"
             style="stroke-width:1.82541">
            <path
               style="opacity:1;fill:#eeeeee;fill-opacity:1;fill-rule:nonzero;stroke:none;stroke-width:0.4324;stroke-linecap:butt;stroke-linejoin:bevel;stroke-miterlimit:4;stroke-dasharray:none;stroke-dashoffset:0;stroke-opacity:1;paint-order:normal"
               d="m 126.25966,206.33254 3.78305,1.62038 v 4.59326 l -3.78305,-1.62038 z"
               id="path88"
               inkscape:connector-curvature="0"
               sodipodi:nodetypes="ccccc" />
            <path
               sodipodi:nodetypes="ccccc"
               inkscape:connector-curvature="0"
               id="path89"
               d="m 133.82576,206.33254 -3.78305,1.62038 v 4.59326 l 3.78305,-1.62038 z"
               style="opacity:1;fill:#bdbdbd;fill-opacity:1;fill-rule:nonzero;stroke:none;stroke-width:0.4324;stroke-linecap:butt;stroke-linejoin:bevel;stroke-miterlimit:4;stroke-dasharray:none;stroke-dashoffset:0;stroke-opacity:1;paint-order:normal" />
            <path
               style="opacity:1;fill:#ffffff;fill-opacity:1;fill-rule:nonzero;stroke:none;stroke-width:0.4324;stroke-linecap:butt;stroke-linejoin:bevel;stroke-miterlimit:4;stroke-dasharray:none;stroke-dashoffset:0;stroke-opacity:1;paint-order:normal"
               d="m 133.82576,206.33254 -3.78305,1.62038 -3.78305,-1.62038 3.78305,-1.62039 z"
               id="path90"
               inkscape:connector-curvature="0"
               sodipodi:nodetypes="ccccc" />
          </g>
        </g>
      </g>
    </g>
  </g>
</svg>
